<?xml version="1.0" encoding="UTF-8"?>
<svg version="1.1" xmlns="http://www.w3.org/2000/svg" width="512" height="512">
<path d="M0 0 C12.21402725 9.58210138 12.21402725 9.58210138 16.39453125 15.7109375 C16.77641602 16.2680542 17.15830078 16.8251709 17.55175781 17.39916992 C18.5943595 18.97486763 19.58223371 20.58638089 20.56640625 22.19921875 C22.71883851 24.55303596 22.71883851 24.55303596 24.93017578 24.48779297 C26.46478074 24.30339587 27.9940721 24.07108434 29.51611328 23.80200195 C52.7723334 19.84758537 77.65885864 26.34277645 97.02734375 39.375 C119.13584023 55.22824823 132.60907005 77.08360654 137.66015625 103.7109375 C138.14688561 108.56787518 138.1721999 113.37200574 138.15234375 118.25 C138.15621094 119.19230469 138.16007812 120.13460937 138.1640625 121.10546875 C138.15782547 125.6148428 137.98790115 129.89147219 137.27734375 134.34765625 C136.81380331 137.66831856 136.81380331 137.66831856 138.58203125 140.50390625 C139.34773438 140.97699219 140.1134375 141.45007813 140.90234375 141.9375 C141.73636719 142.50339844 142.57039063 143.06929687 143.4296875 143.65234375 C144.71552734 144.50505859 144.71552734 144.50505859 146.02734375 145.375 C164.21513021 159.52806087 175.74325597 181.70324046 179.02734375 204.375 C180.88181671 235.61455619 174.90071774 260.22353341 154.21484375 284.125 C151.55406974 287.02079506 148.9317198 289.53195647 145.69140625 291.7421875 C144.8557312 292.31501465 144.8557312 292.31501465 144.00317383 292.89941406 C142.42747612 293.94201575 140.81596286 294.92988996 139.203125 295.9140625 C136.84930779 298.06649476 136.84930779 298.06649476 136.91455078 300.27783203 C137.09894788 301.81243699 137.33125941 303.34172835 137.6003418 304.86376953 C141.53745462 328.01822495 135.14159563 353.13184265 122.02734375 372.375 C119.18240899 376.19049914 116.18466491 379.81473401 113.02734375 383.375 C112.10695313 384.42107422 112.10695313 384.42107422 111.16796875 385.48828125 C98.6708376 398.81321383 82.5241813 406.76239897 65.02734375 411.375 C63.79564453 411.7153125 63.79564453 411.7153125 62.5390625 412.0625 C51.40633518 414.61929862 38.32109758 414.41132957 27.0703125 412.62109375 C23.74080337 412.16054061 23.74080337 412.16054061 20.8984375 413.9296875 C20.42535156 414.69539063 19.95226562 415.46109375 19.46484375 416.25 C18.89894531 417.08402344 18.33304687 417.91804688 17.75 418.77734375 C16.89728516 420.06318359 16.89728516 420.06318359 16.02734375 421.375 C1.87428288 439.56278646 -20.30089671 451.09091222 -42.97265625 454.375 C-74.21221244 456.22947296 -98.82118966 450.24837399 -122.72265625 429.5625 C-125.61845131 426.90172599 -128.12961272 424.27937605 -130.33984375 421.0390625 C-130.72172852 420.4819458 -131.10361328 419.9248291 -131.49707031 419.35083008 C-132.539672 417.77513237 -133.52754621 416.16361911 -134.51171875 414.55078125 C-136.66501976 412.19673838 -136.66501976 412.19673838 -138.88208008 412.26000977 C-140.41892597 412.44306051 -141.95045266 412.67462549 -143.47460938 412.94360352 C-166.63930269 416.94399572 -191.68968934 410.27339208 -210.97265625 397.375 C-214.79130549 394.53404782 -218.41235141 391.53235561 -221.97265625 388.375 C-222.67003906 387.76140625 -223.36742187 387.1478125 -224.0859375 386.515625 C-239.95564255 371.63181345 -251.26190894 348.80979768 -252.06274414 326.91162109 C-252.10685939 324.10689975 -252.10907426 321.305025 -252.09765625 318.5 C-252.10152344 317.55769531 -252.10539062 316.61539062 -252.109375 315.64453125 C-252.10313797 311.1351572 -251.93321365 306.85852781 -251.22265625 302.40234375 C-250.75911581 299.08168144 -250.75911581 299.08168144 -252.52734375 296.24609375 C-253.67589844 295.53646484 -253.67589844 295.53646484 -254.84765625 294.8125 C-255.68167969 294.24660156 -256.51570313 293.68070312 -257.375 293.09765625 C-258.23222656 292.52917969 -259.08945312 291.96070313 -259.97265625 291.375 C-278.16044271 277.22193913 -289.68856847 255.04675954 -292.97265625 232.375 C-294.82712921 201.13544381 -288.84603024 176.52646659 -268.16015625 152.625 C-265.49938224 149.72920494 -262.8770323 147.21804353 -259.63671875 145.0078125 C-259.07960205 144.62592773 -258.52248535 144.24404297 -257.94848633 143.85058594 C-256.37278862 142.80798425 -254.76127536 141.82011004 -253.1484375 140.8359375 C-250.79462029 138.68350524 -250.79462029 138.68350524 -250.85986328 136.47216797 C-251.04426038 134.93756301 -251.27657191 133.40827165 -251.5456543 131.88623047 C-255.49912405 108.63557876 -249.00940155 83.73677639 -235.97265625 64.375 C-220.07064802 42.31422219 -198.3362163 28.78994503 -171.64453125 23.74609375 C-166.78474466 23.25494511 -161.97885806 23.23013079 -157.09765625 23.25 C-156.15535156 23.24613281 -155.21304688 23.24226563 -154.2421875 23.23828125 C-149.73281345 23.24451828 -145.45618406 23.4144426 -141 24.125 C-137.67933769 24.58854044 -137.67933769 24.58854044 -134.84375 22.8203125 C-134.13412109 21.67175781 -134.13412109 21.67175781 -133.41015625 20.5 C-132.84425781 19.66597656 -132.27835938 18.83195312 -131.6953125 17.97265625 C-131.12683594 17.11542969 -130.55835938 16.25820313 -129.97265625 15.375 C-99.5352193 -23.7394791 -38.96903531 -28.516278 0 0 Z M-41.97265625 101.375 C-42.01003906 112.69941406 -42.04742187 124.02382812 -42.0859375 135.69140625 C-42.1162087 142.86003835 -42.14722898 150.02865419 -42.18164062 157.19726562 C-42.23613618 168.57884252 -42.2875487 179.96037427 -42.3190918 191.34204102 C-42.34207829 199.63115598 -42.37548364 207.92015256 -42.42135781 216.20917362 C-42.44528123 220.59744484 -42.46401578 224.98559887 -42.47027016 229.37393379 C-42.476325 233.50669887 -42.49633921 237.63916414 -42.52693176 241.77181816 C-42.53570559 243.28627311 -42.53943592 244.80076725 -42.53766441 246.31524658 C-42.53600515 248.38881742 -42.5527645 250.46148133 -42.57392883 252.53492737 C-42.5785378 253.69362115 -42.58314676 254.85231493 -42.58789539 256.04612064 C-43.13017164 260.73779383 -44.47039382 264.79197077 -47.7890625 268.2890625 C-50.62171952 269.69778996 -52.75428233 269.77387799 -55.91015625 269.75 C-56.92980469 269.75773438 -57.94945312 269.76546875 -59 269.7734375 C-62.47999296 269.30699955 -64.20735721 268.53439332 -66.97265625 266.375 C-70.97265625 260.375 -70.97265625 260.375 -73.97265625 245.375 C-97.07265625 245.375 -120.17265625 245.375 -143.97265625 245.375 C-144.19035225 258.38354808 -144.19035225 258.38354808 -142.41015625 270.875 C-142.23379639 271.66269775 -142.05743652 272.45039551 -141.87573242 273.26196289 C-138.65399456 286.69284412 -132.94412403 297.86787557 -123.97265625 308.375 C-123.43253906 309.02726563 -122.89242187 309.67953125 -122.3359375 310.3515625 C-108.42712635 325.69679999 -85.02572796 333.76038886 -64.97265625 335.375 C-46.04254853 336.27626671 -28.43014731 335.36014336 -10.97265625 327.375 C-10.04066406 326.95605469 -9.10867188 326.53710938 -8.1484375 326.10546875 C8.14987809 318.03768628 19.05824899 303.6512993 25.03515625 286.73046875 C29.42140787 271.89664931 30.18074214 257.16006557 30.14086914 241.8059082 C30.14058649 240.26735943 30.14074652 238.72881053 30.14131165 237.19026184 C30.14159658 233.04640525 30.13574919 228.90257807 30.12873769 224.75872827 C30.12245336 220.41591052 30.12189635 216.07309198 30.12071228 211.73027039 C30.11761387 203.52120905 30.1094207 195.31216116 30.09936279 187.10310572 C30.08605638 175.99982565 30.0806897 164.89654185 30.07486057 153.79325581 C30.0654797 136.32049382 30.04555086 118.84776018 30.02734375 101.375 C6.26734375 101.375 -17.49265625 101.375 -41.97265625 101.375 Z " fill="#0073FF" transform="translate(312.97265625,37.625)"/>
</svg>
